<mxfile host="app.diagrams.net" modified="2024-08-16T17:41:04.089Z" agent="Mozilla/5.0 (Windows NT 10.0; Win64; x64) AppleWebKit/537.36 (KHTML, like Gecko) Chrome/127.0.0.0 Safari/537.36" version="24.6.5" etag="ACxOSQXX4OYboF8rB59k" type="github">
  <diagram name="Page-1" id="XZm17fa1l4LouVpnDQf_">
    <mxGraphModel>
      <root>
        <mxCell id="0" />
        <mxCell id="1" parent="0" />
      </root>
    </mxGraphModel>
  </diagram>
</mxfile>
